<?xml version="1.0" standalone="no"?>
<!DOCTYPE svg PUBLIC "-//W3C//DTD SVG 20010904//EN"
 "http://www.w3.org/TR/2001/REC-SVG-20010904/DTD/svg10.dtd">
<svg version="1.0" xmlns="http://www.w3.org/2000/svg"
 width="0" height="80" viewBox="500 380 500 252.000000"
 preserveAspectRatio="xMidYMid meet">

<g transform="translate(0.000000,1024.000000) scale(0.100000,-0.100000)"
fill="#000000" stroke="none">
<path d="M3095 6212 c-118 -51 -186 -122 -216 -226 -5 -17 -27 -170 -49 -341
-22 -170 -51 -393 -65 -495 -94 -718 -96 -737 -86 -777 12 -44 42 -76 84 -92
19 -8 266 -11 760 -11 596 0 742 3 785 14 125 34 218 123 251 241 10 36 91
627 182 1330 32 244 32 251 15 287 -10 21 -35 48 -55 60 l-36 23 -765 2 c-704
2 -768 1 -805 -15z m1369 -214 c17 -7 34 -25 42 -45 15 -36 14 -49 -56 -563
-16 -118 -45 -343 -65 -500 -42 -326 -53 -362 -120 -395 -38 -18 -69 -19 -697
-22 l-658 -4 0 24 c0 13 34 278 75 588 42 310 82 616 90 679 8 63 17 129 20
147 7 42 49 91 86 100 49 13 1250 4 1283 -9z"/>
<path d="M3246 5548 c-15 -117 -45 -340 -67 -496 -21 -156 -39 -296 -39 -312
l0 -30 109 0 c61 0 112 3 114 8 3 4 24 161 48 350 24 188 47 342 50 342 3 0
86 -114 184 -252 99 -139 210 -297 248 -350 l69 -98 94 0 c57 0 94 4 94 10 0
6 16 126 36 268 19 141 48 356 64 477 16 121 32 237 35 258 l5 37 -114 0 -115
0 -6 -32 c-3 -18 -23 -167 -44 -331 -22 -164 -41 -301 -44 -304 -6 -5 -56 65
-297 415 l-173 252 -112 0 -111 0 -28 -212z"/>
<path d="M5100 5840 c0 -3 -1 -257 -2 -565 l-3 -560 108 -3 107 -3 0 379 c0
208 3 381 6 385 4 3 114 -143 245 -326 132 -183 257 -355 278 -383 l39 -52 86
-1 86 -1 0 567 0 568 -115 0 -115 0 -1 -345 c0 -328 -1 -344 -17 -320 -9 13
-119 168 -243 345 l-227 320 -116 0 c-64 0 -116 -2 -116 -5z"/>
<path d="M9860 5658 c0 -104 -2 -188 -5 -188 -3 0 -25 16 -51 35 -66 51 -136
68 -258 63 -91 -3 -109 -7 -168 -36 -159 -78 -251 -254 -235 -447 15 -171 112
-306 264 -366 47 -19 78 -23 168 -23 100 -1 115 1 165 26 30 15 70 39 88 54
l32 27 0 -47 0 -46 110 0 110 0 0 568 0 568 -110 -1 -110 0 0 -187z m-152
-294 c82 -34 132 -111 140 -215 10 -148 -90 -259 -233 -258 -113 0 -191 62
-220 177 -33 127 16 245 120 293 50 23 142 25 193 3z"/>
<path d="M6467 5560 c-158 -40 -275 -179 -296 -353 -28 -232 70 -409 270 -489
46 -19 74 -22 184 -23 112 0 138 3 185 23 63 25 153 90 158 113 2 9 -25 40
-62 72 l-64 57 -51 -34 c-63 -42 -129 -58 -195 -45 -99 18 -170 82 -183 164
l-6 35 312 0 311 0 0 78 c-1 138 -33 226 -115 308 -74 74 -137 96 -290 100
-66 2 -137 -1 -158 -6z m247 -177 c41 -19 96 -94 96 -130 l0 -24 -201 1 -201
1 7 27 c30 123 177 184 299 125z"/>
<path d="M8630 5556 c-85 -23 -166 -89 -196 -162 -21 -50 -18 -147 6 -193 38
-75 96 -110 268 -159 57 -17 114 -38 127 -46 35 -23 34 -68 -2 -96 -57 -45
-237 -11 -316 58 -17 15 -22 11 -84 -50 -45 -45 -64 -71 -60 -82 10 -26 120
-91 189 -112 47 -14 94 -19 183 -19 108 0 125 3 175 26 111 52 159 117 168
226 6 74 -14 136 -56 179 -28 28 -124 76 -177 88 -190 44 -243 89 -180 151 21
22 33 25 92 25 82 0 128 -12 177 -45 20 -14 40 -25 44 -24 4 0 34 32 66 71
l60 70 -25 19 c-37 30 -89 55 -148 73 -66 19 -244 21 -311 2z"/>
<path d="M10481 5554 c-154 -41 -266 -159 -301 -315 -7 -33 -11 -95 -8 -150 3
-80 9 -104 35 -162 79 -167 234 -246 461 -235 214 11 366 129 417 323 30 115
13 258 -40 350 -31 53 -109 126 -161 153 -103 52 -283 69 -403 36z m264 -202
c89 -49 137 -157 117 -266 -32 -172 -200 -250 -354 -164 -129 73 -144 304 -26
403 48 41 86 54 153 54 47 0 71 -6 110 -27z"/>
<path d="M11363 5552 c-130 -46 -200 -146 -191 -273 3 -45 11 -69 34 -101 43
-62 86 -84 284 -142 92 -28 130 -48 136 -72 26 -103 -170 -118 -319 -24 l-46
29 -65 -66 c-36 -36 -66 -70 -66 -75 0 -16 121 -87 188 -110 55 -19 88 -23
182 -23 141 0 198 17 269 81 113 102 115 272 4 363 -44 36 -108 62 -230 93
-104 26 -150 59 -139 101 19 75 196 79 298 5 l31 -22 58 65 c32 35 58 69 59
76 0 18 -62 62 -122 85 -77 31 -291 36 -365 10z"/>
<path d="M12216 5559 c-63 -15 -155 -70 -193 -113 -134 -154 -145 -419 -23
-589 73 -101 185 -157 334 -165 143 -8 260 29 345 107 l43 40 -70 61 -71 61
-50 -35 c-85 -58 -185 -66 -270 -22 -52 28 -111 110 -111 156 0 20 4 20 310
20 l310 0 0 78 c0 188 -83 327 -229 383 -64 25 -256 36 -325 18z m193 -160
c28 -6 62 -20 76 -31 29 -23 79 -114 70 -128 -8 -13 -392 -13 -400 0 -7 12 20
78 43 103 21 23 67 48 107 58 43 10 49 10 104 -2z"/>
<path d="M7035 5528 c15 -49 159 -452 224 -628 l68 -185 112 0 113 0 81 247
c45 136 84 247 87 247 3 0 41 -111 86 -247 l80 -247 104 -3 c57 -1 107 1 111
5 4 4 73 186 152 403 80 217 148 403 152 413 7 16 -1 17 -120 15 l-128 -3 -77
-245 c-42 -135 -79 -252 -81 -259 -3 -8 -44 102 -90 245 l-86 259 -103 0 -103
0 -85 -253 c-46 -140 -88 -250 -92 -245 -4 4 -44 119 -90 256 l-82 247 -120 0
c-119 0 -119 0 -113 -22z"/>
</g>
</svg>
